<?xml version="1.0" encoding="UTF-8"?>
<svg id="Layer_2" data-name="Layer 2" xmlns="http://www.w3.org/2000/svg" xmlns:xlink="http://www.w3.org/1999/xlink" viewBox="0 0 248.16 198.42">
  <defs>
    <style>
      .cls-1 {
        fill: url(#_Áåçûìÿííûé_ãðàäèåíò_17-2);
      }

      .cls-2 {
        fill: #fff;
      }

      .cls-3 {
        opacity: .5;
      }

      .cls-4 {
        fill: url(#_Áåçûìÿííûé_ãðàäèåíò_5-4);
      }

      .cls-5 {
        fill: url(#_Áåçûìÿííûé_ãðàäèåíò_24);
      }

      .cls-6 {
        fill: url(#_Áåçûìÿííûé_ãðàäèåíò_17-4);
      }

      .cls-7 {
        fill: url(#_Áåçûìÿííûé_ãðàäèåíò_17-3);
      }

      .cls-8 {
        fill: url(#_Áåçûìÿííûé_ãðàäèåíò_5-3);
      }

      .cls-9 {
        fill: url(#_Áåçûìÿííûé_ãðàäèåíò_5);
      }

      .cls-10 {
        fill: url(#_Áåçûìÿííûé_ãðàäèåíò_5-2);
      }

      .cls-11 {
        fill: url(#_Áåçûìÿííûé_ãðàäèåíò_24-2);
      }

      .cls-12 {
        fill: url(#_Áåçûìÿííûé_ãðàäèåíò_17);
      }
    </style>
    <linearGradient id="_Áåçûìÿííûé_ãðàäèåíò_17" data-name="Áåçûìÿííûé ãðàäèåíò 17" x1="-8023.54" y1="1798.35" x2="-7947.88" y2="1798.35" gradientTransform="translate(6801.76 1788.39) rotate(30.01) scale(.9 1) skewX(21.26)" gradientUnits="userSpaceOnUse">
      <stop offset="0" stop-color="#7bdaff"/>
      <stop offset="1" stop-color="#59bdef"/>
    </linearGradient>
    <linearGradient id="_Áåçûìÿííûé_ãðàäèåíò_5" data-name="Áåçûìÿííûé ãðàäèåíò 5" x1="-7930.24" y1="1838.54" x2="-7971.43" y2="1793.87" gradientTransform="translate(6801.76 1788.39) rotate(30.01) scale(.9 1) skewX(21.26)" gradientUnits="userSpaceOnUse">
      <stop offset=".77" stop-color="#59bdef"/>
      <stop offset=".85" stop-color="#54b8eb"/>
      <stop offset=".93" stop-color="#48aae1"/>
      <stop offset="1" stop-color="#3a9bd5"/>
    </linearGradient>
    <linearGradient id="_Áåçûìÿííûé_ãðàäèåíò_5-2" data-name="Áåçûìÿííûé ãðàäèåíò 5" x1="38.21" y1="1838.61" x2="-2.98" y2="1793.94" gradientTransform="translate(551.41 -1821.92) rotate(-149.99) scale(.9 -1) skewX(-21.26)" xlink:href="#_Áåçûìÿííûé_ãðàäèåíò_5"/>
    <linearGradient id="_Áåçûìÿííûé_ãðàäèåíò_24" data-name="Áåçûìÿííûé ãðàäèåíò 24" x1="-7985.71" y1="1862.99" x2="-7985.71" y2="1799.21" gradientTransform="translate(6801.76 1788.39) rotate(30.01) scale(.9 1) skewX(21.26)" gradientUnits="userSpaceOnUse">
      <stop offset=".77" stop-color="#3a9bd5"/>
      <stop offset=".84" stop-color="#3796d1"/>
      <stop offset=".92" stop-color="#3088c8"/>
      <stop offset="1" stop-color="#2573ba"/>
    </linearGradient>
    <linearGradient id="_Áåçûìÿííûé_ãðàäèåíò_17-2" data-name="Áåçûìÿííûé ãðàäèåíò 17" x1="-8010.99" y1="1767.59" x2="-7945.92" y2="1802.08" xlink:href="#_Áåçûìÿííûé_ãðàäèåíò_17"/>
    <linearGradient id="_Áåçûìÿííûé_ãðàäèåíò_17-3" data-name="Áåçûìÿííûé ãðàäèåíò 17" x1="-3084.71" y1="-324.74" x2="-2893.57" y2="-324.74" gradientTransform="translate(-2178.21 1788.39) rotate(149.99) scale(.9 -1) skewX(21.26)" xlink:href="#_Áåçûìÿííûé_ãðàäèåíò_17"/>
    <linearGradient id="_Áåçûìÿííûé_ãðàäèåíò_5-3" data-name="Áåçûìÿííûé ãðàäèåíò 5" x1="-2849" y1="-223.22" x2="-2953.06" y2="-336.06" gradientTransform="translate(-2178.21 1788.39) rotate(149.99) scale(.9 -1) skewX(21.26)" xlink:href="#_Áåçûìÿííûé_ãðàäèåíò_5"/>
    <linearGradient id="_Áåçûìÿííûé_ãðàäèåíò_5-4" data-name="Áåçûìÿííûé ãðàäèåíò 5" x1="-4873.6" y1="-223.24" x2="-4977.65" y2="-336.08" gradientTransform="translate(4072.14 -1821.92) rotate(-30.01) scale(.9 1) skewX(-21.26)" xlink:href="#_Áåçûìÿííûé_ãðàäèåíò_5"/>
    <linearGradient id="_Áåçûìÿííûé_ãðàäèåíò_24-2" data-name="Áåçûìÿííûé ãðàäèåíò 24" x1="-2989.14" y1="-161.45" x2="-2989.14" y2="-322.57" gradientTransform="translate(-2178.21 1788.39) rotate(149.99) scale(.9 -1) skewX(21.26)" xlink:href="#_Áåçûìÿííûé_ãðàäèåíò_24"/>
    <linearGradient id="_Áåçûìÿííûé_ãðàäèåíò_17-4" data-name="Áåçûìÿííûé ãðàäèåíò 17" x1="-3052.99" y1="-402.44" x2="-2888.61" y2="-315.32" gradientTransform="translate(-2178.21 1788.39) rotate(149.99) scale(.9 -1) skewX(21.26)" xlink:href="#_Áåçûìÿííûé_ãðàäèåíò_17"/>
  </defs>
  <g id="_Ñëîé_1" data-name="Ñëîé 1">
    <g>
      <g>
        <path class="cls-2" d="m38.38,121.52l3.07-1.77,3.06,1.77-3.07,1.77-3.06-1.77Z"/>
        <path class="cls-2" d="m44.91,125.29l3.07-1.77,3.06,1.77-3.07,1.77-3.06-1.77Z"/>
        <path class="cls-2" d="m51.45,129.07l3.07-1.77,3.06,1.77-3.07,1.77-3.06-1.77Z"/>
        <path class="cls-2" d="m57.98,132.84l3.07-1.77,3.06,1.77-3.07,1.77-3.06-1.77Z"/>
        <path class="cls-2" d="m64.51,136.61l3.07-1.77,3.06,1.77-3.07,1.77-3.06-1.77Z"/>
      </g>
      <g class="cls-3">
        <path class="cls-2" d="m247.75,52.68h0,0s-.03-.07-.04-.11c-.01-.03-.02-.05-.03-.08-.01-.03-.02-.05-.03-.08-.4-.95-1.02-1.75-1.79-2.2l-.22-.13h0s-26.41-15.25-26.41-15.25l-26.41-15.25h0s-.22-.13-.22-.13c-.77-.44-1.54-.45-2.18-.1-.02,0-.03.02-.05.03-.02,0-.03.02-.05.03l-3.49,2.01,2.01.85-6.98,36.98c-.18.95-.02,2.01.38,2.95.01.03.02.05.03.08.01.02.02.05.03.07.4.95,1.02,1.75,1.79,2.2l52.68,30.43-.49,2.32,3.3-1.91s.03-.02.05-.03c.64-.34,1.13-1.02,1.31-1.98l7.14-37.87c.17-.92.03-1.93-.34-2.85Z"/>
        <g>
          <path class="cls-12" d="m233.92,97.31l-53.26-30.76c-1.61-.93-2.59-3.43-2.18-5.57l7.04-37.33c.41-2.15,2.04-3.14,3.65-2.21l53.26,30.76c1.61.93,2.59,3.43,2.18,5.57l-7.04,37.33c-.41,2.15-2.04,3.14-3.65,2.21Z"/>
          <path class="cls-9" d="m242.21,52.08l-26.41-15.25-8.28,43.88,26.18,16.48c1.73,1,3.44.19,3.82-1.81l7.14-37.87c.38-2-.72-4.43-2.45-5.43Z"/>
          <path class="cls-10" d="m189.39,21.57l26.41,15.25-8.22,43.6-26.7-13.75c-1.73-1-2.83-3.43-2.45-5.43l7.14-37.87c.38-2,2.09-2.81,3.82-1.81Z"/>
          <path class="cls-5" d="m178.76,64.09c.43,1.08,1.18,2.04,2.12,2.58l52.82,30.51c.94.54,1.86.55,2.58.13l-23.67-43.6-33.85,10.38Z"/>
          <path class="cls-1" d="m244.32,54.66c-.43-1.08-1.18-2.04-2.12-2.58l-52.82-30.51c-.94-.54-1.86-.55-2.58-.13l23.67,43.6,33.85-10.38Z"/>
        </g>
      </g>
      <g>
        <path class="cls-2" d="m1.03,84.79h0,0c.04-.09.07-.18.11-.27.03-.06.05-.13.08-.19.03-.07.06-.13.09-.2,1.01-2.4,2.58-4.42,4.52-5.55l.55-.32h0s66.72-38.54,66.72-38.54L139.82,1.2h0s.55-.32.55-.32c1.94-1.12,3.89-1.13,5.52-.25.05.02.09.05.13.07.04.03.09.05.13.07l8.81,5.08-5.08,2.15,17.62,93.42c.45,2.41.05,5.07-.96,7.46-.03.07-.06.13-.08.2-.03.06-.05.13-.08.19-1.01,2.4-2.58,4.43-4.52,5.55L28.79,191.68l1.23,5.86-8.34-4.83s-.09-.05-.13-.07c-1.63-.87-2.85-2.59-3.31-5L.19,91.98c-.44-2.32-.08-4.87.85-7.19Z"/>
        <g>
          <path class="cls-7" d="m35.97,197.54l134.54-77.71c4.07-2.35,6.54-8.65,5.51-14.08l-17.78-94.29c-1.02-5.43-5.15-7.92-9.22-5.57L14.48,83.59c-4.07,2.35-6.54,8.65-5.51,14.08l17.78,94.29c1.02,5.43,5.15,7.92,9.22,5.57Z"/>
          <path class="cls-8" d="m15.03,83.27l66.72-38.54,20.91,110.85-66.14,41.63c-4.37,2.53-8.69.48-9.64-4.57L8.84,96.99c-.95-5.05,1.82-11.19,6.19-13.72Z"/>
          <path class="cls-4" d="m148.47,6.2l-66.72,38.54,20.78,110.15,67.44-34.74c4.37-2.53,7.14-8.67,6.19-13.72l-18.04-95.66c-.95-5.05-5.27-7.1-9.64-4.57Z"/>
          <path class="cls-11" d="m175.31,113.62c-1.09,2.73-2.98,5.16-5.34,6.52L36.52,197.22c-2.36,1.36-4.7,1.38-6.51.33l59.79-110.15,85.51,26.23Z"/>
          <path class="cls-6" d="m9.69,89.8c1.09-2.73,2.98-5.16,5.34-6.52L148.47,6.2c2.36-1.36,4.7-1.38,6.51-.33l-59.79,110.15L9.69,89.8Z"/>
        </g>
      </g>
      <g>
        <rect class="cls-2" x="236.46" y="112.36" width="1.79" height="1.79" transform="translate(149.61 -134.67) rotate(45)"/>
        <rect class="cls-2" x="241.03" y="112.35" width="1.79" height="1.79" transform="translate(150.93 -137.9) rotate(45)"/>
        <rect class="cls-2" x="238.76" y="110.07" width="1.79" height="1.79" transform="translate(148.66 -136.96) rotate(45)"/>
        <rect class="cls-2" x="238.74" y="114.64" width="1.79" height="1.79" transform="translate(151.88 -135.61) rotate(45)"/>
      </g>
    </g>
  </g>
</svg>